<?xml version="1.0" encoding="utf-8"?>
<!-- Generator: Adobe Illustrator 19.2.1, SVG Export Plug-In . SVG Version: 6.00 Build 0)  -->
<svg version="1.1" id="Layer_1" xmlns="http://www.w3.org/2000/svg" xmlns:xlink="http://www.w3.org/1999/xlink" x="0px" y="0px"
	 viewBox="0 0 861 688.8" style="enable-background:new 0 0 861 688.8;" xml:space="preserve">
<style type="text/css">
	.st0{fill:#FFFFFF;}
</style>
<g>
	<g>
		<path class="st0" d="M635.285,284.563c7.068-10.884,13.283-23.257,18.669-36.299c-33.622-6.518-54.189,13.945-72.524,41.84
			c-19.838,30.208-45.742,61.999-87.161,80.984c-41.438,18.997-75.944,19.114-106.152,6.171
			c-30.196-12.937-67.317-46.583-88.027-59.538c-17.605-11.007-34.543-8.218-47.727,2.375
			c34.37,40.195,80.86,78.782,130.844,107.005c0,0-62.451,108.335-72.901,129.249c-13.524,27.116,6.883,34.054,20.11,19.887
			c13.444-14.39,44.876-50.17,64.677-67.311c19.794-17.154,50.151-13.196,71.269,9.239c21.112,22.441,43.553,58.073,63.341,89.74
			c19.801,31.68,38.272,35.638,52.804,27.716c-48.834-105.583-100.314-199.305-100.314-199.305
			C556.113,395.408,603.624,333.391,635.285,284.563"/>
	</g>
	<g>
		<path class="st0" d="M455.522,288.16c3.945,26.523-8.763,50.398-28.347,53.305c-19.603,2.913-38.655-16.264-42.6-42.798
			c-3.945-26.541,8.763-50.417,28.353-53.311C432.512,242.437,451.595,261.619,455.522,288.16"/>
		<path class="st0" d="M232.876,290.65c-24.841-56.217-24.29-96.604-5.108-122.18c19.139-25.533,58.06-42.242,94.829-30.326
			c36.744,11.879,61.356,46.014,74.985,55.079c13.648,9.084,33.016,13.648,62.803-21.124
			c28.582-33.393,64.553-64.998,111.142-66.742c40.04-1.509,76.983,23.591,87.804,58.852c5.244,17.129,5.009,42.545,0.26,69.271
			c14.581-41.834,19.98-87.736,12.652-115.211c-10.55-39.595-49.941-70.564-93.524-68.505
			c-47.504,2.245-91.001,34.122-123.287,70.217c-33.609,37.579-54.535,31.81-69.043,21.242
			c-14.526-10.562-40.127-49.347-79.722-63.873c-39.595-14.52-82.542,2.653-104.26,30.356
			c-21.755,27.735-23.765,72.58,1.311,135.952c7.922,19.992,20.598,41.048,36.788,61.962
			C237.681,300.582,235.046,295.585,232.876,290.65"/>
	</g>
	<g>
		<path class="st0" d="M545.257,423.161c10.877,0,19.535,8.837,19.535,19.881c0,11.23-8.657,19.98-19.621,19.98
			c-10.865,0-19.702-8.75-19.702-19.98c0-11.044,8.837-19.881,19.702-19.881H545.257z M545.17,426.253
			c-8.75,0-15.899,7.513-15.899,16.789c0,9.461,7.149,16.882,15.985,16.882c8.837,0.087,15.911-7.421,15.911-16.789
			c0-9.369-7.074-16.882-15.911-16.882H545.17z M541.46,454.624h-3.531v-22.181c1.855-0.272,3.617-0.532,6.27-0.532
			c3.364,0,5.565,0.705,6.895,1.676c1.323,0.971,2.041,2.474,2.041,4.601c0,2.913-1.954,4.675-4.335,5.386v0.179
			c1.942,0.346,3.265,2.115,3.71,5.386c0.526,3.451,1.051,4.774,1.416,5.485h-3.717c-0.532-0.711-1.064-2.74-1.503-5.658
			c-0.526-2.832-1.942-3.89-4.774-3.89h-2.474V454.624z M541.46,442.337h2.56c2.925,0,5.399-1.057,5.399-3.797
			c0-1.954-1.416-3.896-5.399-3.896c-1.15,0-1.942,0.093-2.56,0.179V442.337z"/>
	</g>
</g>
</svg>
